<svg width="1440" height="1024" viewBox="0 0 1440 1024" fill="none" xmlns="http://www.w3.org/2000/svg">
<g clip-path="url(#clip0_1_2)">
<rect width="1440" height="1024" fill="white" style="fill:white;fill-opacity:1;"/>
<g clip-path="url(#clip1_1_2)">
<mask id="path-1-outside-1_1_2" maskUnits="userSpaceOnUse" x="0" y="0" width="302" height="1024" fill="black">
<rect fill="white" width="302" height="1024"/>
<path d="M0 0H300V1024H0V0Z"/>
</mask>
<rect x="16" y="16" width="40" height="40" rx="8" fill="#2381CF" style="fill:#2381CF;fill:color(display-p3 0.1373 0.5059 0.8118);fill-opacity:1;"/>
<path d="M26 27.28L31 40.08L34.14 35.44C29.28 35.44 26 27.28 26 27.28Z" fill="white" style="fill:white;fill-opacity:1;"/>
<path d="M33.56 46L36 52.28L46 27.28C46 27.28 38.04 46 33.56 46Z" fill="white" style="fill:white;fill-opacity:1;"/>
<path d="M36 30.36C37.42 30.38 43.14 24.08 43.14 24.08L36 33.52L28.86 24.08C28.86 24.08 34.58 30.34 36 30.36Z" fill="white" style="fill:white;fill-opacity:1;"/>
<path fill-rule="evenodd" clip-rule="evenodd" d="M26.9354 27.476L31.2216 38.4486L34.4616 34.119L28.4114 26L26.9354 27.476ZM26 27.28L31 40.08L35.46 34.12L28.5 24.78L26 27.28Z" fill="white" style="fill:white;fill-opacity:1;"/>
<path fill-rule="evenodd" clip-rule="evenodd" d="M32.3651 41.0388L36 50.1259L45.0604 27.4748L43.5709 25.9971L32.3651 41.0388ZM31.456 40.92L36 52.28L46 27.28L43.48 24.78L31.456 40.92Z" fill="white" style="fill:white;fill-opacity:1;"/>
<path fill-rule="evenodd" clip-rule="evenodd" d="M33.5 22.28L31 19.68L28.86 24.08L36 33.52L43.14 24.08L41 19.68L38.5 22.28H33.5ZM40.782 21.0609L38.8406 23.08H33.1594L31.218 21.0609L29.794 23.9887L36 32.1938L42.206 23.9887L40.782 21.0609Z" fill="white" style="fill:white;fill-opacity:1;"/>
<ellipse cx="34" cy="25.68" rx="0.799999" ry="0.8" fill="white" style="fill:white;fill-opacity:1;"/>
<ellipse cx="38" cy="25.68" rx="0.799999" ry="0.8" fill="white" style="fill:white;fill-opacity:1;"/>
<path d="M71.92 33L67.344 27.112L71.776 21.704H74.88L69.888 27.576V26.552L75.04 33H71.92ZM65.088 33V21.704H67.6V33H65.088ZM76.1453 33V25.224H78.5933V33H76.1453ZM77.3773 24.152C76.9933 24.152 76.6733 24.024 76.4173 23.768C76.1719 23.5013 76.0493 23.1813 76.0493 22.808C76.0493 22.424 76.1719 22.104 76.4173 21.848C76.6733 21.592 76.9933 21.464 77.3773 21.464C77.7613 21.464 78.0759 21.592 78.3213 21.848C78.5666 22.104 78.6893 22.424 78.6893 22.808C78.6893 23.1813 78.5666 23.5013 78.3213 23.768C78.0759 24.024 77.7613 24.152 77.3773 24.152ZM85.4531 33V28.568C85.4531 28.1627 85.3251 27.8373 85.0691 27.592C84.8238 27.336 84.5091 27.208 84.1251 27.208C83.8585 27.208 83.6238 27.2667 83.4211 27.384C83.2185 27.4907 83.0585 27.6507 82.9411 27.864C82.8238 28.0667 82.7651 28.3013 82.7651 28.568L81.8211 28.104C81.8211 27.496 81.9545 26.9627 82.2211 26.504C82.4878 26.0453 82.8558 25.6933 83.3251 25.448C83.8051 25.192 84.3438 25.064 84.9411 25.064C85.5171 25.064 86.0238 25.2027 86.4611 25.48C86.9091 25.7467 87.2611 26.104 87.5171 26.552C87.7731 27 87.9011 27.4907 87.9011 28.024V33H85.4531ZM80.3171 33V25.224H82.7651V33H80.3171ZM92.3054 33.192C91.8467 33.192 91.3934 33.1333 90.9454 33.016C90.508 32.8987 90.0974 32.7333 89.7134 32.52C89.34 32.296 89.02 32.04 88.7534 31.752L90.1454 30.344C90.4014 30.6213 90.7054 30.84 91.0574 31C91.4094 31.1493 91.7934 31.224 92.2094 31.224C92.4974 31.224 92.716 31.1813 92.8654 31.096C93.0254 31.0107 93.1054 30.8933 93.1054 30.744C93.1054 30.552 93.0094 30.408 92.8174 30.312C92.636 30.2053 92.4014 30.1147 92.1134 30.04C91.8254 29.9547 91.5214 29.864 91.2014 29.768C90.8814 29.672 90.5774 29.5387 90.2894 29.368C90.0014 29.1973 89.7667 28.9627 89.5854 28.664C89.404 28.3547 89.3134 27.9653 89.3134 27.496C89.3134 26.9947 89.4414 26.5627 89.6974 26.2C89.9534 25.8267 90.316 25.5333 90.7854 25.32C91.2547 25.1067 91.804 25 92.4334 25C93.0947 25 93.7027 25.1173 94.2574 25.352C94.8227 25.576 95.2814 25.912 95.6334 26.36L94.2414 27.768C93.996 27.48 93.7187 27.2773 93.4094 27.16C93.1107 27.0427 92.8174 26.984 92.5294 26.984C92.252 26.984 92.044 27.0267 91.9054 27.112C91.7667 27.1867 91.6974 27.2987 91.6974 27.448C91.6974 27.608 91.788 27.736 91.9694 27.832C92.1507 27.928 92.3854 28.0133 92.6734 28.088C92.9614 28.1627 93.2654 28.2533 93.5854 28.36C93.9054 28.4667 94.2094 28.6107 94.4974 28.792C94.7854 28.9733 95.02 29.2187 95.2014 29.528C95.3827 29.8267 95.4734 30.2213 95.4734 30.712C95.4734 31.4693 95.1854 32.072 94.6094 32.52C94.044 32.968 93.276 33.192 92.3054 33.192ZM101.938 33V28.568C101.938 28.1627 101.81 27.8373 101.554 27.592C101.308 27.336 100.994 27.208 100.61 27.208C100.343 27.208 100.108 27.2667 99.9055 27.384C99.7028 27.4907 99.5428 27.6507 99.4255 27.864C99.3082 28.0667 99.2495 28.3013 99.2495 28.568L98.3055 28.104C98.3055 27.496 98.4335 26.9627 98.6895 26.504C98.9455 26.0453 99.3028 25.6933 99.7615 25.448C100.22 25.192 100.748 25.064 101.346 25.064C101.954 25.064 102.487 25.192 102.946 25.448C103.404 25.6933 103.756 26.04 104.002 26.488C104.258 26.9253 104.385 27.4373 104.385 28.024V33H101.938ZM96.8015 33V21.384H99.2495V33H96.8015ZM105.958 33V25.224H108.406V33H105.958ZM107.19 24.152C106.806 24.152 106.486 24.024 106.23 23.768C105.984 23.5013 105.862 23.1813 105.862 22.808C105.862 22.424 105.984 22.104 106.23 21.848C106.486 21.592 106.806 21.464 107.19 21.464C107.574 21.464 107.888 21.592 108.134 21.848C108.379 22.104 108.502 22.424 108.502 22.808C108.502 23.1813 108.379 23.5013 108.134 23.768C107.888 24.024 107.574 24.152 107.19 24.152ZM114.61 33.16C114.087 33.16 113.607 33.0587 113.17 32.856C112.732 32.6533 112.375 32.376 112.098 32.024C111.82 31.6613 111.66 31.2507 111.618 30.792V27.512C111.66 27.0533 111.82 26.6373 112.098 26.264C112.375 25.8907 112.732 25.5973 113.17 25.384C113.607 25.1707 114.087 25.064 114.61 25.064C115.346 25.064 115.996 25.24 116.562 25.592C117.138 25.944 117.586 26.424 117.906 27.032C118.236 27.64 118.402 28.3333 118.402 29.112C118.402 29.8907 118.236 30.584 117.906 31.192C117.586 31.8 117.138 32.28 116.562 32.632C115.996 32.984 115.346 33.16 114.61 33.16ZM110.13 36.28V25.224H112.578V27.224L112.178 29.112L112.546 31V36.28H110.13ZM114.162 30.952C114.514 30.952 114.818 30.872 115.074 30.712C115.34 30.552 115.548 30.3333 115.698 30.056C115.847 29.7787 115.922 29.464 115.922 29.112C115.922 28.7493 115.847 28.4293 115.698 28.152C115.548 27.8747 115.34 27.6613 115.074 27.512C114.818 27.352 114.519 27.272 114.178 27.272C113.836 27.272 113.532 27.352 113.266 27.512C113.01 27.6613 112.807 27.8747 112.658 28.152C112.508 28.4293 112.434 28.7493 112.434 29.112C112.434 29.464 112.503 29.7787 112.642 30.056C112.791 30.3333 112.999 30.552 113.266 30.712C113.532 30.872 113.831 30.952 114.162 30.952Z" fill="#212121" style="fill:#212121;fill:color(display-p3 0.1294 0.1294 0.1294);fill-opacity:1;"/>
<path d="M68.312 47.024L64.49 41.368H65.694L68.872 46.114H68.368L71.574 41.368H72.736L68.886 47.024H68.312ZM68.102 51V46.282H69.138V51H68.102ZM75.1264 51.14C74.4917 51.14 73.9131 50.986 73.3904 50.678C72.8771 50.37 72.4664 49.9547 72.1584 49.432C71.8597 48.9093 71.7104 48.326 71.7104 47.682C71.7104 47.0473 71.8597 46.4733 72.1584 45.96C72.4664 45.4467 72.8771 45.0407 73.3904 44.742C73.9131 44.434 74.4917 44.28 75.1264 44.28C75.7704 44.28 76.3491 44.4293 76.8624 44.728C77.3757 45.0267 77.7817 45.4373 78.0804 45.96C78.3884 46.4733 78.5424 47.0473 78.5424 47.682C78.5424 48.3353 78.3884 48.9233 78.0804 49.446C77.7817 49.9593 77.3757 50.37 76.8624 50.678C76.3491 50.986 75.7704 51.14 75.1264 51.14ZM75.1264 50.188C75.5931 50.188 76.0037 50.0807 76.3584 49.866C76.7224 49.6513 77.0071 49.3527 77.2124 48.97C77.4271 48.5873 77.5344 48.158 77.5344 47.682C77.5344 47.206 77.4271 46.786 77.2124 46.422C77.0071 46.0487 76.7224 45.7547 76.3584 45.54C76.0037 45.3253 75.5931 45.218 75.1264 45.218C74.6691 45.218 74.2584 45.3253 73.8944 45.54C73.5304 45.7547 73.2457 46.0487 73.0404 46.422C72.8351 46.786 72.7324 47.206 72.7324 47.682C72.7324 48.1673 72.8351 48.6013 73.0404 48.984C73.2457 49.3573 73.5304 49.6513 73.8944 49.866C74.2584 50.0807 74.6691 50.188 75.1264 50.188ZM82.7054 51.14C82.1734 51.14 81.6974 51.0187 81.2774 50.776C80.8574 50.524 80.5261 50.1833 80.2834 49.754C80.0501 49.3247 79.9334 48.8207 79.9334 48.242V44.42H80.9274V48.2C80.9274 48.6013 80.9974 48.9513 81.1374 49.25C81.2868 49.5487 81.4968 49.782 81.7674 49.95C82.0381 50.118 82.3508 50.202 82.7054 50.202C83.2561 50.202 83.6901 50.02 84.0074 49.656C84.3341 49.292 84.4974 48.8067 84.4974 48.2V44.42H85.4774V48.242C85.4774 48.8113 85.3608 49.3153 85.1274 49.754C84.8941 50.1927 84.5674 50.5333 84.1474 50.776C83.7274 51.0187 83.2468 51.14 82.7054 51.14ZM87.3065 51V44.42H88.2865V51H87.3065ZM88.2865 47.164L87.8805 46.982C87.8805 46.1513 88.0812 45.4933 88.4825 45.008C88.8932 44.5227 89.4532 44.28 90.1625 44.28C90.4892 44.28 90.7878 44.3407 91.0585 44.462C91.3292 44.574 91.5812 44.756 91.8145 45.008L91.1705 45.694C91.0118 45.5167 90.8345 45.3907 90.6385 45.316C90.4518 45.2413 90.2372 45.204 89.9945 45.204C89.4905 45.204 89.0798 45.372 88.7625 45.708C88.4452 46.0347 88.2865 46.52 88.2865 47.164ZM96.3492 51V41.368H97.3712V51H96.3492ZM97.0212 46.646V45.708H102.187V46.646H97.0212ZM97.0212 42.306V41.368H102.425V42.306H97.0212ZM106.61 51.14C105.984 51.14 105.424 50.9907 104.93 50.692C104.435 50.384 104.043 49.9733 103.754 49.46C103.474 48.9467 103.334 48.368 103.334 47.724C103.334 47.0707 103.474 46.4873 103.754 45.974C104.043 45.4513 104.435 45.0407 104.93 44.742C105.424 44.434 105.98 44.28 106.596 44.28C107.1 44.28 107.548 44.3827 107.94 44.588C108.341 44.784 108.663 45.064 108.906 45.428C109.158 45.7827 109.312 46.198 109.368 46.674V48.732C109.312 49.208 109.158 49.628 108.906 49.992C108.663 50.356 108.341 50.6407 107.94 50.846C107.548 51.042 107.104 51.14 106.61 51.14ZM106.764 50.202C107.445 50.202 107.991 49.9733 108.402 49.516C108.822 49.0587 109.032 48.4567 109.032 47.71C109.032 47.2153 108.934 46.7813 108.738 46.408C108.551 46.0253 108.285 45.7313 107.94 45.526C107.604 45.3113 107.207 45.204 106.75 45.204C106.283 45.204 105.868 45.3113 105.504 45.526C105.149 45.7407 104.864 46.0393 104.65 46.422C104.444 46.7953 104.342 47.2247 104.342 47.71C104.342 48.1953 104.444 48.6247 104.65 48.998C104.864 49.3713 105.154 49.6653 105.518 49.88C105.882 50.0947 106.297 50.202 106.764 50.202ZM108.976 51V49.236L109.172 47.612L108.976 46.03V44.42H109.956V51H108.976ZM111.943 51V44.42H112.923V51H111.943ZM116.465 51V46.968C116.465 46.4267 116.302 45.9973 115.975 45.68C115.649 45.3533 115.238 45.19 114.743 45.19C114.407 45.19 114.099 45.2647 113.819 45.414C113.549 45.554 113.329 45.7547 113.161 46.016C113.003 46.2773 112.923 46.59 112.923 46.954L112.475 46.772C112.475 46.268 112.587 45.8293 112.811 45.456C113.035 45.0827 113.334 44.7933 113.707 44.588C114.09 44.3827 114.519 44.28 114.995 44.28C115.462 44.28 115.877 44.3827 116.241 44.588C116.615 44.7933 116.909 45.0827 117.123 45.456C117.347 45.8293 117.459 46.2727 117.459 46.786V51H116.465ZM121.001 51V46.968C121.001 46.4267 120.838 45.9973 120.511 45.68C120.185 45.3533 119.769 45.19 119.265 45.19C118.939 45.19 118.635 45.2647 118.355 45.414C118.085 45.554 117.865 45.7547 117.697 46.016C117.539 46.2773 117.459 46.59 117.459 46.954L116.871 46.772C116.899 46.268 117.03 45.8293 117.263 45.456C117.506 45.0827 117.819 44.7933 118.201 44.588C118.593 44.3827 119.023 44.28 119.489 44.28C119.956 44.28 120.376 44.3827 120.749 44.588C121.132 44.7933 121.431 45.0827 121.645 45.456C121.869 45.8293 121.981 46.2727 121.981 46.786V51H121.001ZM123.824 51V44.42H124.818V51H123.824ZM124.314 42.992C124.127 42.992 123.969 42.9267 123.838 42.796C123.707 42.656 123.642 42.4927 123.642 42.306C123.642 42.11 123.707 41.9467 123.838 41.816C123.969 41.6853 124.127 41.62 124.314 41.62C124.519 41.62 124.683 41.6853 124.804 41.816C124.935 41.9467 125 42.11 125 42.306C125 42.4927 124.935 42.656 124.804 42.796C124.683 42.9267 124.519 42.992 124.314 42.992ZM126.805 51V41.088H127.785V51H126.805ZM131.969 51.028L129.085 44.42H130.163L132.487 49.936H132.081L134.531 44.42H135.623L132.529 51.028H131.969ZM130.177 53.772L131.983 50.034L132.529 51.028L131.255 53.772H130.177ZM142.609 51V41.634H143.645V51H142.609ZM139.221 42.306V41.368H147.033V42.306H139.221ZM146.984 51V44.42H147.964V51H146.984ZM147.964 47.164L147.558 46.982C147.558 46.1513 147.759 45.4933 148.16 45.008C148.571 44.5227 149.131 44.28 149.84 44.28C150.167 44.28 150.466 44.3407 150.736 44.462C151.007 44.574 151.259 44.756 151.492 45.008L150.848 45.694C150.69 45.5167 150.512 45.3907 150.316 45.316C150.13 45.2413 149.915 45.204 149.672 45.204C149.168 45.204 148.758 45.372 148.44 45.708C148.123 46.0347 147.964 46.52 147.964 47.164ZM155.341 51.14C154.678 51.14 154.085 50.9907 153.563 50.692C153.04 50.3933 152.625 49.9827 152.317 49.46C152.018 48.9373 151.869 48.3493 151.869 47.696C151.869 47.052 152.018 46.4733 152.317 45.96C152.615 45.4373 153.021 45.0267 153.535 44.728C154.048 44.4293 154.622 44.28 155.257 44.28C155.854 44.28 156.381 44.4153 156.839 44.686C157.305 44.9567 157.669 45.3347 157.931 45.82C158.201 46.296 158.337 46.8467 158.337 47.472C158.337 47.5467 158.332 47.6353 158.323 47.738C158.313 47.8313 158.295 47.9433 158.267 48.074H152.569V47.234H157.735L157.385 47.542C157.394 47.0567 157.31 46.6413 157.133 46.296C156.965 45.9413 156.717 45.6707 156.391 45.484C156.073 45.288 155.686 45.19 155.229 45.19C154.753 45.19 154.337 45.2927 153.983 45.498C153.628 45.7033 153.348 45.9927 153.143 46.366C152.947 46.73 152.849 47.164 152.849 47.668C152.849 48.172 152.951 48.6153 153.157 48.998C153.371 49.3807 153.665 49.6793 154.039 49.894C154.421 50.1087 154.86 50.216 155.355 50.216C155.756 50.216 156.125 50.146 156.461 50.006C156.797 49.8567 157.081 49.6373 157.315 49.348L157.945 49.992C157.637 50.356 157.254 50.6407 156.797 50.846C156.349 51.042 155.863 51.14 155.341 51.14ZM162.874 51.14C162.211 51.14 161.618 50.9907 161.096 50.692C160.573 50.3933 160.158 49.9827 159.85 49.46C159.551 48.9373 159.402 48.3493 159.402 47.696C159.402 47.052 159.551 46.4733 159.85 45.96C160.148 45.4373 160.554 45.0267 161.068 44.728C161.581 44.4293 162.155 44.28 162.79 44.28C163.387 44.28 163.914 44.4153 164.372 44.686C164.838 44.9567 165.202 45.3347 165.464 45.82C165.734 46.296 165.87 46.8467 165.87 47.472C165.87 47.5467 165.865 47.6353 165.856 47.738C165.846 47.8313 165.828 47.9433 165.8 48.074H160.102V47.234H165.268L164.918 47.542C164.927 47.0567 164.843 46.6413 164.666 46.296C164.498 45.9413 164.25 45.6707 163.924 45.484C163.606 45.288 163.219 45.19 162.762 45.19C162.286 45.19 161.87 45.2927 161.516 45.498C161.161 45.7033 160.881 45.9927 160.676 46.366C160.48 46.73 160.382 47.164 160.382 47.668C160.382 48.172 160.484 48.6153 160.69 48.998C160.904 49.3807 161.198 49.6793 161.572 49.894C161.954 50.1087 162.393 50.216 162.888 50.216C163.289 50.216 163.658 50.146 163.994 50.006C164.33 49.8567 164.614 49.6373 164.848 49.348L165.478 49.992C165.17 50.356 164.787 50.6407 164.33 50.846C163.882 51.042 163.396 51.14 162.874 51.14ZM169.504 51L173.452 41.368H174.222L178.128 51H177.022L173.62 42.488H174.026L170.596 51H169.504ZM171.31 48.494V47.584H176.35V48.494H171.31ZM183.048 51.14C182.544 51.14 182.092 51.0373 181.69 50.832C181.289 50.6267 180.958 50.3467 180.696 49.992C180.444 49.628 180.29 49.208 180.234 48.732V46.674C180.29 46.1887 180.449 45.7687 180.71 45.414C180.972 45.05 181.303 44.77 181.704 44.574C182.115 44.378 182.563 44.28 183.048 44.28C183.655 44.28 184.201 44.434 184.686 44.742C185.172 45.0407 185.554 45.4513 185.834 45.974C186.124 46.4873 186.268 47.0707 186.268 47.724C186.268 48.368 186.128 48.9467 185.848 49.46C185.568 49.9733 185.181 50.384 184.686 50.692C184.201 50.9907 183.655 51.14 183.048 51.14ZM179.646 53.772V44.42H180.626V46.1L180.43 47.696L180.626 49.306V53.772H179.646ZM182.88 50.202C183.347 50.202 183.758 50.0993 184.112 49.894C184.467 49.6793 184.742 49.3853 184.938 49.012C185.144 48.6293 185.246 48.1953 185.246 47.71C185.246 47.2153 185.144 46.7813 184.938 46.408C184.742 46.0347 184.467 45.7407 184.112 45.526C183.758 45.3113 183.352 45.204 182.894 45.204C182.437 45.204 182.031 45.3113 181.676 45.526C181.331 45.7407 181.06 46.0347 180.864 46.408C180.668 46.7813 180.57 47.2153 180.57 47.71C180.57 48.1953 180.668 48.6293 180.864 49.012C181.06 49.3853 181.331 49.6793 181.676 49.894C182.022 50.0993 182.423 50.202 182.88 50.202ZM191.238 51.14C190.734 51.14 190.281 51.0373 189.88 50.832C189.478 50.6267 189.147 50.3467 188.886 49.992C188.634 49.628 188.48 49.208 188.424 48.732V46.674C188.48 46.1887 188.638 45.7687 188.9 45.414C189.161 45.05 189.492 44.77 189.894 44.574C190.304 44.378 190.752 44.28 191.238 44.28C191.844 44.28 192.39 44.434 192.876 44.742C193.361 45.0407 193.744 45.4513 194.024 45.974C194.313 46.4873 194.458 47.0707 194.458 47.724C194.458 48.368 194.318 48.9467 194.038 49.46C193.758 49.9733 193.37 50.384 192.876 50.692C192.39 50.9907 191.844 51.14 191.238 51.14ZM187.836 53.772V44.42H188.816V46.1L188.62 47.696L188.816 49.306V53.772H187.836ZM191.07 50.202C191.536 50.202 191.947 50.0993 192.302 49.894C192.656 49.6793 192.932 49.3853 193.128 49.012C193.333 48.6293 193.436 48.1953 193.436 47.71C193.436 47.2153 193.333 46.7813 193.128 46.408C192.932 46.0347 192.656 45.7407 192.302 45.526C191.947 45.3113 191.541 45.204 191.084 45.204C190.626 45.204 190.22 45.3113 189.866 45.526C189.52 45.7407 189.25 46.0347 189.054 46.408C188.858 46.7813 188.76 47.2153 188.76 47.71C188.76 48.1953 188.858 48.6293 189.054 49.012C189.25 49.3853 189.52 49.6793 189.866 49.894C190.211 50.0993 190.612 50.202 191.07 50.202Z" fill="#8B8B8B" style="fill:#8B8B8B;fill:color(display-p3 0.5451 0.5451 0.5451);fill-opacity:1;"/>
<path d="M278.875 29.2812H265.125C264.835 29.2812 264.557 29.3965 264.352 29.6016C264.146 29.8067 264.031 30.0849 264.031 30.375V41.625C264.031 41.9151 264.146 42.1933 264.352 42.3984C264.557 42.6035 264.835 42.7188 265.125 42.7188H278.875C279.165 42.7188 279.443 42.6035 279.648 42.3984C279.854 42.1933 279.969 41.9151 279.969 41.625V30.375C279.969 30.0849 279.854 29.8067 279.648 29.6016C279.443 29.3965 279.165 29.2812 278.875 29.2812ZM264.969 41.625V30.375C264.969 30.3336 264.985 30.2938 265.015 30.2645C265.044 30.2352 265.084 30.2188 265.125 30.2188H268.406V41.7812H265.125C265.084 41.7812 265.044 41.7648 265.015 41.7355C264.985 41.7062 264.969 41.6664 264.969 41.625ZM279.031 41.625C279.031 41.6664 279.015 41.7062 278.985 41.7355C278.956 41.7648 278.916 41.7812 278.875 41.7812H269.344V30.2188H278.875C278.916 30.2188 278.956 30.2352 278.985 30.2645C279.015 30.2938 279.031 30.3336 279.031 30.375V41.625Z" fill="#212121" style="fill:#212121;fill:color(display-p3 0.1294 0.1294 0.1294);fill-opacity:1;"/>
<rect x="16" y="76" width="268" height="40" rx="8" fill="#E6F7FF" style="fill:#E6F7FF;fill:color(display-p3 0.9020 0.9686 1.0000);fill-opacity:1;"/>
<rect x="24" y="84" width="24" height="24" rx="4" fill="#E6F7FF" style="fill:#E6F7FF;fill:color(display-p3 0.9020 0.9686 1.0000);fill-opacity:1;"/>
<path d="M42.25 88.6562H40.2188V87.875C40.2188 87.7507 40.1694 87.6315 40.0815 87.5435C39.9935 87.4556 39.8743 87.4062 39.75 87.4062C39.6257 87.4062 39.5065 87.4556 39.4185 87.5435C39.3306 87.6315 39.2812 87.7507 39.2812 87.875V88.6562H32.7188V87.875C32.7188 87.7507 32.6694 87.6315 32.5815 87.5435C32.4935 87.4556 32.3743 87.4062 32.25 87.4062C32.1257 87.4062 32.0065 87.4556 31.9185 87.5435C31.8306 87.6315 31.7812 87.7507 31.7812 87.875V88.6562H29.75C29.4599 88.6562 29.1817 88.7715 28.9766 88.9766C28.7715 89.1817 28.6562 89.4599 28.6562 89.75V102.25C28.6562 102.54 28.7715 102.818 28.9766 103.023C29.1817 103.229 29.4599 103.344 29.75 103.344H42.25C42.5401 103.344 42.8183 103.229 43.0234 103.023C43.2285 102.818 43.3438 102.54 43.3438 102.25V89.75C43.3438 89.4599 43.2285 89.1817 43.0234 88.9766C42.8183 88.7715 42.5401 88.6562 42.25 88.6562ZM29.75 89.5938H31.7812V90.375C31.7812 90.4993 31.8306 90.6185 31.9185 90.7065C32.0065 90.7944 32.1257 90.8438 32.25 90.8438C32.3743 90.8438 32.4935 90.7944 32.5815 90.7065C32.6694 90.6185 32.7188 90.4993 32.7188 90.375V89.5938H39.2812V90.375C39.2812 90.4993 39.3306 90.6185 39.4185 90.7065C39.5065 90.7944 39.6257 90.8438 39.75 90.8438C39.8743 90.8438 39.9935 90.7944 40.0815 90.7065C40.1694 90.6185 40.2188 90.4993 40.2188 90.375V89.5938H42.25C42.2914 89.5938 42.3312 89.6102 42.3605 89.6395C42.3898 89.6688 42.4062 89.7086 42.4062 89.75V92.4062H29.5938V89.75C29.5938 89.7086 29.6102 89.6688 29.6395 89.6395C29.6688 89.6102 29.7086 89.5938 29.75 89.5938ZM42.25 102.406H29.75C29.7086 102.406 29.6688 102.39 29.6395 102.36C29.6102 102.331 29.5938 102.291 29.5938 102.25V93.3438H42.4062V102.25C42.4062 102.291 42.3898 102.331 42.3605 102.36C42.3312 102.39 42.2914 102.406 42.25 102.406ZM39.1438 95.6687C39.2315 95.7566 39.2808 95.8758 39.2808 96C39.2808 96.1242 39.2315 96.2434 39.1438 96.3313L35.3937 100.081C35.3059 100.169 35.1867 100.218 35.0625 100.218C34.9383 100.218 34.8191 100.169 34.7313 100.081L32.8563 98.2063C32.7735 98.1174 32.7284 97.9999 32.7305 97.8784C32.7327 97.757 32.7819 97.6411 32.8677 97.5552C32.9536 97.4694 33.0695 97.4202 33.1909 97.418C33.3124 97.4159 33.4299 97.4609 33.5187 97.5437L35.0625 99.0867L38.4812 95.6687C38.5691 95.581 38.6883 95.5317 38.8125 95.5317C38.9367 95.5317 39.0559 95.581 39.1438 95.6687Z" fill="#2381CF" style="fill:#2381CF;fill:color(display-p3 0.1373 0.5059 0.8118);fill-opacity:1;"/>
<path d="M57.148 101V91.284H58.464V101H57.148ZM58.044 96.73V95.526H63.112V96.73H58.044ZM58.044 92.488V91.284H63.35V92.488H58.044ZM67.4083 101.14C66.8016 101.14 66.2509 100.991 65.7563 100.692C65.2616 100.384 64.8696 99.9687 64.5802 99.446C64.3003 98.9233 64.1603 98.3353 64.1603 97.682C64.1603 97.0287 64.3003 96.4407 64.5802 95.918C64.8696 95.3953 65.2569 94.98 65.7423 94.672C66.2369 94.364 66.7923 94.21 67.4083 94.21C67.9123 94.21 68.3603 94.3173 68.7523 94.532C69.1536 94.7373 69.4756 95.0267 69.7183 95.4C69.9609 95.764 70.0963 96.1887 70.1243 96.674V98.676C70.0963 99.152 69.9609 99.5767 69.7183 99.95C69.4849 100.323 69.1676 100.617 68.7663 100.832C68.3743 101.037 67.9216 101.14 67.4083 101.14ZM67.6183 99.95C68.2436 99.95 68.7476 99.74 69.1303 99.32C69.5129 98.8907 69.7043 98.3447 69.7043 97.682C69.7043 97.2247 69.6156 96.828 69.4383 96.492C69.2703 96.1467 69.0276 95.8807 68.7103 95.694C68.3929 95.498 68.0243 95.4 67.6043 95.4C67.1843 95.4 66.8109 95.498 66.4843 95.694C66.1669 95.89 65.9149 96.1607 65.7283 96.506C65.5509 96.842 65.4623 97.2293 65.4623 97.668C65.4623 98.116 65.5509 98.5127 65.7283 98.858C65.9149 99.194 66.1716 99.46 66.4983 99.656C66.8249 99.852 67.1983 99.95 67.6183 99.95ZM69.6203 101V99.208L69.8583 97.584L69.6203 95.974V94.35H70.8943V101H69.6203ZM72.7287 101V94.35H73.9887V101H72.7287ZM77.2227 101V96.982C77.2227 96.4873 77.0687 96.1 76.7607 95.82C76.462 95.5307 76.084 95.386 75.6267 95.386C75.3187 95.386 75.0434 95.4513 74.8007 95.582C74.558 95.7127 74.362 95.8947 74.2127 96.128C74.0634 96.3613 73.9887 96.6413 73.9887 96.968L73.4707 96.716C73.4707 96.212 73.578 95.7733 73.7927 95.4C74.0167 95.0267 74.32 94.7373 74.7027 94.532C75.0854 94.3173 75.5147 94.21 75.9907 94.21C76.4574 94.21 76.8774 94.3127 77.2507 94.518C77.6334 94.7233 77.932 95.0127 78.1467 95.386C78.3707 95.7593 78.4827 96.2027 78.4827 96.716V101H77.2227ZM81.7167 101V96.982C81.7167 96.4873 81.5627 96.1 81.2547 95.82C80.956 95.5307 80.5827 95.386 80.1347 95.386C79.8267 95.386 79.5467 95.4513 79.2947 95.582C79.052 95.7127 78.856 95.8947 78.7067 96.128C78.5574 96.3613 78.4827 96.6413 78.4827 96.968L77.7687 96.716C77.7967 96.2027 77.932 95.764 78.1747 95.4C78.4267 95.0267 78.7487 94.7373 79.1407 94.532C79.5327 94.3173 79.962 94.21 80.4287 94.21C80.914 94.21 81.348 94.3127 81.7307 94.518C82.1134 94.7233 82.4167 95.0127 82.6407 95.386C82.874 95.7593 82.9907 96.2073 82.9907 96.73V101H81.7167ZM84.7193 101V94.35H85.9793V101H84.7193ZM85.3493 93.02C85.1159 93.02 84.9246 92.9453 84.7753 92.796C84.6259 92.6373 84.5513 92.4413 84.5513 92.208C84.5513 91.984 84.6259 91.7973 84.7753 91.648C84.9246 91.4893 85.1159 91.41 85.3493 91.41C85.5826 91.41 85.7739 91.4893 85.9233 91.648C86.0726 91.7973 86.1473 91.984 86.1473 92.208C86.1473 92.4413 86.0726 92.6373 85.9233 92.796C85.7739 92.9453 85.5826 93.02 85.3493 93.02ZM87.8361 101V91.004H89.0961V101H87.8361ZM93.1236 101.056L90.2396 94.35H91.6396L93.7816 99.6H93.3336L95.5876 94.35H96.9876L93.8796 101.056H93.1236ZM91.2196 103.786L93.1796 99.768L93.8796 101.056L92.6196 103.786H91.2196ZM103.624 101V91.564H104.94V101H103.624ZM100.32 92.488V91.284H108.23V92.488H100.32ZM108.084 101V94.35H109.344V101H108.084ZM109.344 97.206L108.868 96.996C108.868 96.1467 109.064 95.47 109.456 94.966C109.848 94.462 110.413 94.21 111.15 94.21C111.486 94.21 111.789 94.2707 112.06 94.392C112.331 94.504 112.583 94.6953 112.816 94.966L111.99 95.82C111.85 95.6707 111.696 95.5633 111.528 95.498C111.36 95.4327 111.164 95.4 110.94 95.4C110.473 95.4 110.091 95.5493 109.792 95.848C109.493 96.1467 109.344 96.5993 109.344 97.206ZM116.565 101.14C115.902 101.14 115.305 100.991 114.773 100.692C114.241 100.384 113.821 99.9687 113.513 99.446C113.205 98.9233 113.051 98.3307 113.051 97.668C113.051 97.0147 113.2 96.4267 113.499 95.904C113.807 95.3813 114.217 94.9707 114.731 94.672C115.253 94.364 115.837 94.21 116.481 94.21C117.097 94.21 117.638 94.35 118.105 94.63C118.581 94.91 118.949 95.2973 119.211 95.792C119.481 96.2867 119.617 96.8467 119.617 97.472C119.617 97.5653 119.612 97.668 119.603 97.78C119.593 97.8827 119.575 98.004 119.547 98.144H113.933V97.094H118.875L118.413 97.5C118.413 97.052 118.333 96.674 118.175 96.366C118.016 96.0487 117.792 95.806 117.503 95.638C117.213 95.4607 116.863 95.372 116.453 95.372C116.023 95.372 115.645 95.4653 115.319 95.652C114.992 95.8387 114.74 96.1 114.563 96.436C114.385 96.772 114.297 97.1687 114.297 97.626C114.297 98.0927 114.39 98.5033 114.577 98.858C114.763 99.2033 115.029 99.474 115.375 99.67C115.72 99.8567 116.117 99.95 116.565 99.95C116.938 99.95 117.279 99.8847 117.587 99.754C117.904 99.6233 118.175 99.4273 118.399 99.166L119.211 99.992C118.893 100.365 118.501 100.65 118.035 100.846C117.577 101.042 117.087 101.14 116.565 101.14ZM124.07 101.14C123.408 101.14 122.81 100.991 122.278 100.692C121.746 100.384 121.326 99.9687 121.018 99.446C120.71 98.9233 120.556 98.3307 120.556 97.668C120.556 97.0147 120.706 96.4267 121.004 95.904C121.312 95.3813 121.723 94.9707 122.236 94.672C122.759 94.364 123.342 94.21 123.986 94.21C124.602 94.21 125.144 94.35 125.61 94.63C126.086 94.91 126.455 95.2973 126.716 95.792C126.987 96.2867 127.122 96.8467 127.122 97.472C127.122 97.5653 127.118 97.668 127.108 97.78C127.099 97.8827 127.08 98.004 127.052 98.144H121.438V97.094H126.38L125.918 97.5C125.918 97.052 125.839 96.674 125.68 96.366C125.522 96.0487 125.298 95.806 125.008 95.638C124.719 95.4607 124.369 95.372 123.958 95.372C123.529 95.372 123.151 95.4653 122.824 95.652C122.498 95.8387 122.246 96.1 122.068 96.436C121.891 96.772 121.802 97.1687 121.802 97.626C121.802 98.0927 121.896 98.5033 122.082 98.858C122.269 99.2033 122.535 99.474 122.88 99.67C123.226 99.8567 123.622 99.95 124.07 99.95C124.444 99.95 124.784 99.8847 125.092 99.754C125.41 99.6233 125.68 99.4273 125.904 99.166L126.716 99.992C126.399 100.365 126.007 100.65 125.54 100.846C125.083 101.042 124.593 101.14 124.07 101.14Z" fill="#2381CF" style="fill:#2381CF;fill:color(display-p3 0.1373 0.5059 0.8118);fill-opacity:1;"/>
<rect x="24" y="132" width="24" height="24" rx="4" fill="#E6F7FF" style="fill:#E6F7FF;fill:color(display-p3 0.9020 0.9686 1.0000);fill-opacity:1;"/>
<path d="M42.25 136.656H40.2188V135.875C40.2188 135.751 40.1694 135.631 40.0815 135.544C39.9935 135.456 39.8743 135.406 39.75 135.406C39.6257 135.406 39.5065 135.456 39.4185 135.544C39.3306 135.631 39.2812 135.751 39.2812 135.875V136.656H32.7188V135.875C32.7188 135.751 32.6694 135.631 32.5815 135.544C32.4935 135.456 32.3743 135.406 32.25 135.406C32.1257 135.406 32.0065 135.456 31.9185 135.544C31.8306 135.631 31.7812 135.751 31.7812 135.875V136.656H29.75C29.4599 136.656 29.1817 136.771 28.9766 136.977C28.7715 137.182 28.6562 137.46 28.6562 137.75V150.25C28.6562 150.54 28.7715 150.818 28.9766 151.023C29.1817 151.229 29.4599 151.344 29.75 151.344H42.25C42.5401 151.344 42.8183 151.229 43.0234 151.023C43.2285 150.818 43.3438 150.54 43.3438 150.25V137.75C43.3438 137.46 43.2285 137.182 43.0234 136.977C42.8183 136.771 42.5401 136.656 42.25 136.656ZM29.75 137.594H31.7812V138.375C31.7812 138.499 31.8306 138.619 31.9185 138.706C32.0065 138.794 32.1257 138.844 32.25 138.844C32.3743 138.844 32.4935 138.794 32.5815 138.706C32.6694 138.619 32.7188 138.499 32.7188 138.375V137.594H39.2812V138.375C39.2812 138.499 39.3306 138.619 39.4185 138.706C39.5065 138.794 39.6257 138.844 39.75 138.844C39.8743 138.844 39.9935 138.794 40.0815 138.706C40.1694 138.619 40.2188 138.499 40.2188 138.375V137.594H42.25C42.2914 137.594 42.3312 137.61 42.3605 137.64C42.3898 137.669 42.4062 137.709 42.4062 137.75V140.406H29.5938V137.75C29.5938 137.709 29.6102 137.669 29.6395 137.64C29.6688 137.61 29.7086 137.594 29.75 137.594ZM42.25 150.406H29.75C29.7086 150.406 29.6688 150.39 29.6395 150.36C29.6102 150.331 29.5938 150.291 29.5938 150.25V141.344H42.4062V150.25C42.4062 150.291 42.3898 150.331 42.3605 150.36C42.3312 150.39 42.2914 150.406 42.25 150.406ZM39.1438 143.669C39.2315 143.757 39.2808 143.876 39.2808 144C39.2808 144.124 39.2315 144.243 39.1438 144.331L35.3937 148.081C35.3059 148.169 35.1867 148.218 35.0625 148.218C34.9383 148.218 34.8191 148.169 34.7313 148.081L32.8563 146.206C32.7735 146.117 32.7284 146 32.7305 145.878C32.7327 145.757 32.7819 145.641 32.8677 145.555C32.9536 145.469 33.0695 145.42 33.1909 145.418C33.3124 145.416 33.4299 145.461 33.5187 145.544L35.0625 147.087L38.4812 143.669C38.5691 143.581 38.6883 143.532 38.8125 143.532C38.9367 143.532 39.0559 143.581 39.1438 143.669Z" fill="#2381CF" style="fill:#2381CF;fill:color(display-p3 0.1373 0.5059 0.8118);fill-opacity:1;"/>
<path d="M56.434 149L60.41 139.284H61.362L65.324 149H63.896L60.634 140.782H61.124L57.834 149H56.434ZM58.324 146.802V145.654H63.434V146.802H58.324ZM71.376 149V145.122C71.376 144.618 71.2174 144.203 70.9 143.876C70.5827 143.549 70.172 143.386 69.668 143.386C69.332 143.386 69.0334 143.461 68.772 143.61C68.5107 143.759 68.3054 143.965 68.156 144.226C68.0067 144.487 67.932 144.786 67.932 145.122L67.414 144.828C67.414 144.324 67.526 143.876 67.75 143.484C67.974 143.092 68.2867 142.784 68.688 142.56C69.0894 142.327 69.542 142.21 70.046 142.21C70.55 142.21 70.9934 142.336 71.376 142.588C71.768 142.84 72.076 143.171 72.3 143.582C72.524 143.983 72.636 144.413 72.636 144.87V149H71.376ZM66.672 149V142.35H67.932V149H66.672ZM77.38 149.14C76.7266 149.14 76.134 148.986 75.602 148.678C75.0793 148.37 74.664 147.955 74.356 147.432C74.0573 146.9 73.908 146.312 73.908 145.668C73.908 145.015 74.0573 144.427 74.356 143.904C74.664 143.381 75.0793 142.971 75.602 142.672C76.134 142.364 76.7266 142.21 77.38 142.21C77.8933 142.21 78.3693 142.308 78.808 142.504C79.2466 142.691 79.6246 142.966 79.942 143.33L79.102 144.17C78.8966 143.927 78.6446 143.745 78.346 143.624C78.0566 143.493 77.7346 143.428 77.38 143.428C76.96 143.428 76.5866 143.526 76.26 143.722C75.9333 143.909 75.6766 144.17 75.49 144.506C75.3033 144.842 75.21 145.229 75.21 145.668C75.21 146.107 75.3033 146.494 75.49 146.83C75.6766 147.166 75.9333 147.432 76.26 147.628C76.5866 147.824 76.96 147.922 77.38 147.922C77.7346 147.922 78.0566 147.861 78.346 147.74C78.6446 147.609 78.9013 147.423 79.116 147.18L79.942 148.02C79.634 148.375 79.256 148.65 78.808 148.846C78.3693 149.042 77.8933 149.14 77.38 149.14ZM85.8956 149V145.122C85.8956 144.618 85.7369 144.203 85.4196 143.876C85.1022 143.549 84.6916 143.386 84.1876 143.386C83.8516 143.386 83.5529 143.461 83.2916 143.61C83.0302 143.759 82.8249 143.965 82.6756 144.226C82.5262 144.487 82.4516 144.786 82.4516 145.122L81.9336 144.828C81.9336 144.324 82.0456 143.876 82.2696 143.484C82.4936 143.092 82.8062 142.784 83.2076 142.56C83.6089 142.327 84.0616 142.21 84.5656 142.21C85.0696 142.21 85.5129 142.322 85.8956 142.546C86.2876 142.77 86.5956 143.083 86.8196 143.484C87.0436 143.885 87.1556 144.347 87.1556 144.87V149H85.8956ZM81.1916 149V139.004H82.4516V149H81.1916ZM91.9415 149.14C91.2788 149.14 90.6815 148.991 90.1495 148.692C89.6175 148.384 89.1975 147.969 88.8895 147.446C88.5815 146.923 88.4275 146.331 88.4275 145.668C88.4275 145.015 88.5768 144.427 88.8755 143.904C89.1835 143.381 89.5942 142.971 90.1075 142.672C90.6302 142.364 91.2135 142.21 91.8575 142.21C92.4735 142.21 93.0148 142.35 93.4815 142.63C93.9575 142.91 94.3262 143.297 94.5875 143.792C94.8582 144.287 94.9935 144.847 94.9935 145.472C94.9935 145.565 94.9888 145.668 94.9795 145.78C94.9702 145.883 94.9515 146.004 94.9235 146.144H89.3095V145.094H94.2515L93.7895 145.5C93.7895 145.052 93.7102 144.674 93.5515 144.366C93.3928 144.049 93.1688 143.806 92.8795 143.638C92.5902 143.461 92.2402 143.372 91.8295 143.372C91.4002 143.372 91.0222 143.465 90.6955 143.652C90.3688 143.839 90.1168 144.1 89.9395 144.436C89.7622 144.772 89.6735 145.169 89.6735 145.626C89.6735 146.093 89.7668 146.503 89.9535 146.858C90.1402 147.203 90.4062 147.474 90.7515 147.67C91.0968 147.857 91.4935 147.95 91.9415 147.95C92.3148 147.95 92.6555 147.885 92.9635 147.754C93.2808 147.623 93.5515 147.427 93.7755 147.166L94.5875 147.992C94.2702 148.365 93.8782 148.65 93.4115 148.846C92.9542 149.042 92.4642 149.14 91.9415 149.14ZM98.4814 149.14C98.108 149.14 97.7534 149.093 97.4174 149C97.0907 148.897 96.7874 148.757 96.5074 148.58C96.2274 148.393 95.9847 148.174 95.7794 147.922L96.5914 147.11C96.834 147.409 97.114 147.633 97.4314 147.782C97.7487 147.922 98.1034 147.992 98.4954 147.992C98.8874 147.992 99.1907 147.927 99.4054 147.796C99.62 147.656 99.7274 147.465 99.7274 147.222C99.7274 146.979 99.6387 146.793 99.4614 146.662C99.2934 146.522 99.074 146.41 98.8034 146.326C98.5327 146.233 98.2434 146.144 97.9354 146.06C97.6367 145.967 97.352 145.85 97.0814 145.71C96.8107 145.57 96.5867 145.379 96.4094 145.136C96.2414 144.893 96.1574 144.571 96.1574 144.17C96.1574 143.769 96.2554 143.423 96.4514 143.134C96.6474 142.835 96.918 142.607 97.2634 142.448C97.618 142.289 98.0427 142.21 98.5374 142.21C99.06 142.21 99.522 142.303 99.9234 142.49C100.334 142.667 100.67 142.938 100.931 143.302L100.119 144.114C99.9327 143.871 99.6994 143.685 99.4194 143.554C99.1487 143.423 98.8407 143.358 98.4954 143.358C98.1314 143.358 97.8514 143.423 97.6554 143.554C97.4687 143.675 97.3754 143.848 97.3754 144.072C97.3754 144.296 97.4594 144.469 97.6274 144.59C97.7954 144.711 98.0147 144.814 98.2854 144.898C98.5654 144.982 98.8547 145.071 99.1534 145.164C99.452 145.248 99.7367 145.365 100.007 145.514C100.278 145.663 100.497 145.864 100.665 146.116C100.843 146.368 100.931 146.699 100.931 147.11C100.931 147.735 100.707 148.23 100.259 148.594C99.8207 148.958 99.228 149.14 98.4814 149.14ZM103.364 149V139.564H104.624V149H103.364ZM101.726 143.498V142.35H106.262V143.498H101.726ZM110.329 149.14C109.676 149.14 109.088 148.986 108.565 148.678C108.043 148.37 107.627 147.955 107.319 147.432C107.011 146.9 106.857 146.307 106.857 145.654C106.857 145.01 107.011 144.431 107.319 143.918C107.627 143.395 108.043 142.98 108.565 142.672C109.088 142.364 109.676 142.21 110.329 142.21C110.973 142.21 111.557 142.364 112.079 142.672C112.611 142.971 113.031 143.381 113.339 143.904C113.647 144.427 113.801 145.01 113.801 145.654C113.801 146.307 113.647 146.9 113.339 147.432C113.031 147.955 112.611 148.37 112.079 148.678C111.557 148.986 110.973 149.14 110.329 149.14ZM110.329 147.922C110.749 147.922 111.123 147.824 111.449 147.628C111.776 147.432 112.033 147.166 112.219 146.83C112.406 146.485 112.499 146.093 112.499 145.654C112.499 145.225 112.401 144.842 112.205 144.506C112.019 144.17 111.762 143.909 111.435 143.722C111.118 143.526 110.749 143.428 110.329 143.428C109.909 143.428 109.536 143.526 109.209 143.722C108.883 143.909 108.626 144.17 108.439 144.506C108.253 144.842 108.159 145.225 108.159 145.654C108.159 146.093 108.253 146.485 108.439 146.83C108.626 147.166 108.883 147.432 109.209 147.628C109.536 147.824 109.909 147.922 110.329 147.922ZM115.221 149V142.35H116.481V149H115.221ZM116.481 145.206L116.005 144.996C116.005 144.147 116.201 143.47 116.593 142.966C116.985 142.462 117.55 142.21 118.287 142.21C118.623 142.21 118.926 142.271 119.197 142.392C119.468 142.504 119.72 142.695 119.953 142.966L119.127 143.82C118.987 143.671 118.833 143.563 118.665 143.498C118.497 143.433 118.301 143.4 118.077 143.4C117.61 143.4 117.228 143.549 116.929 143.848C116.63 144.147 116.481 144.599 116.481 145.206Z" fill="#212121" style="fill:#212121;fill:color(display-p3 0.1294 0.1294 0.1294);fill-opacity:1;"/>
</g>
<path d="M300 0H298V1024H300H302V0H300Z" fill="#E7E7E7" style="fill:#E7E7E7;fill:color(display-p3 0.9059 0.9059 0.9059);fill-opacity:1;" mask="url(#path-1-outside-1_1_2)"/>
</g>
<defs>
<clipPath id="clip0_1_2">
<rect width="1440" height="1024" fill="white" style="fill:white;fill-opacity:1;"/>
</clipPath>
<clipPath id="clip1_1_2">
<path d="M0 0H300V1024H0V0Z" fill="white" style="fill:white;fill-opacity:1;"/>
</clipPath>
</defs>
</svg>